<?xml version="1.0" encoding="us-ascii" standalone="no"?><svg xmlns="http://www.w3.org/2000/svg" xmlns:xlink="http://www.w3.org/1999/xlink" contentStyleType="text/css" height="560px" preserveAspectRatio="none" style="width:1446px;height:560px;background:#1B1B1B;" version="1.1" viewBox="0 0 1446 560" width="1446px" zoomAndPan="magnify"><defs/><g><rect fill="#1B1B1B" height="560" style="stroke:none;stroke-width:1.0;" width="1446" x="0" y="0"/><line style="stroke:#E7E7E7;stroke-width:0.5;stroke-dasharray:5.0,5.0;" x1="24" x2="24" y1="81.2969" y2="480.0234"/><line style="stroke:#E7E7E7;stroke-width:0.5;stroke-dasharray:5.0,5.0;" x1="254.5" x2="254.5" y1="81.2969" y2="480.0234"/><line style="stroke:#E7E7E7;stroke-width:0.5;stroke-dasharray:5.0,5.0;" x1="393.5" x2="393.5" y1="81.2969" y2="480.0234"/><line style="stroke:#E7E7E7;stroke-width:0.5;stroke-dasharray:5.0,5.0;" x1="537.5" x2="537.5" y1="81.2969" y2="480.0234"/><line style="stroke:#E7E7E7;stroke-width:0.5;stroke-dasharray:5.0,5.0;" x1="729.5" x2="729.5" y1="81.2969" y2="480.0234"/><line style="stroke:#E7E7E7;stroke-width:0.5;stroke-dasharray:5.0,5.0;" x1="909.5" x2="909.5" y1="81.2969" y2="480.0234"/><line style="stroke:#E7E7E7;stroke-width:0.5;stroke-dasharray:5.0,5.0;" x1="1059.5" x2="1059.5" y1="81.2969" y2="480.0234"/><line style="stroke:#E7E7E7;stroke-width:0.5;stroke-dasharray:5.0,5.0;" x1="1189.5" x2="1189.5" y1="81.2969" y2="480.0234"/><line style="stroke:#E7E7E7;stroke-width:0.5;stroke-dasharray:5.0,5.0;" x1="1295.5" x2="1295.5" y1="81.2969" y2="480.0234"/><line style="stroke:#E7E7E7;stroke-width:0.5;stroke-dasharray:5.0,5.0;" x1="1397.5" x2="1397.5" y1="81.2969" y2="480.0234"/><text fill="#FFFFFF" font-family="sans-serif" font-size="14" lengthAdjust="spacing" textLength="32" x="5" y="77.9951">User</text><ellipse cx="24" cy="13.5" fill="#222222" rx="8" ry="8" style="stroke:#E7E7E7;stroke-width:0.5;"/><path d="M24,21.5 L24,48.5 M11,29.5 L37,29.5 M24,48.5 L11,63.5 M24,48.5 L37,63.5 " fill="none" style="stroke:#E7E7E7;stroke-width:0.5;"/><text fill="#FFFFFF" font-family="sans-serif" font-size="14" lengthAdjust="spacing" textLength="32" x="5" y="492.0186">User</text><ellipse cx="24" cy="503.8203" fill="#222222" rx="8" ry="8" style="stroke:#E7E7E7;stroke-width:0.5;"/><path d="M24,511.8203 L24,538.8203 M11,519.8203 L37,519.8203 M24,538.8203 L11,553.8203 M24,538.8203 L37,553.8203 " fill="none" style="stroke:#E7E7E7;stroke-width:0.5;"/><rect fill="#222222" height="30.2969" rx="2.5" ry="2.5" style="stroke:#E7E7E7;stroke-width:0.5;" width="159" x="175.5" y="50"/><text fill="#FFFFFF" font-family="sans-serif" font-size="14" lengthAdjust="spacing" textLength="145" x="182.5" y="69.9951">Task Management UI</text><rect fill="#222222" height="30.2969" rx="2.5" ry="2.5" style="stroke:#E7E7E7;stroke-width:0.5;" width="159" x="175.5" y="479.0234"/><text fill="#FFFFFF" font-family="sans-serif" font-size="14" lengthAdjust="spacing" textLength="145" x="182.5" y="499.0186">Task Management UI</text><rect fill="#222222" height="30.2969" rx="2.5" ry="2.5" style="stroke:#E7E7E7;stroke-width:0.5;" width="99" x="344.5" y="50"/><text fill="#FFFFFF" font-family="sans-serif" font-size="14" lengthAdjust="spacing" textLength="85" x="351.5" y="69.9951">Reporting UI</text><rect fill="#222222" height="30.2969" rx="2.5" ry="2.5" style="stroke:#E7E7E7;stroke-width:0.5;" width="99" x="344.5" y="479.0234"/><text fill="#FFFFFF" font-family="sans-serif" font-size="14" lengthAdjust="spacing" textLength="85" x="351.5" y="499.0186">Reporting UI</text><rect fill="#222222" height="30.2969" rx="2.5" ry="2.5" style="stroke:#E7E7E7;stroke-width:0.5;" width="168" x="453.5" y="50"/><text fill="#FFFFFF" font-family="sans-serif" font-size="14" lengthAdjust="spacing" textLength="154" x="460.5" y="69.9951">Authentication Service</text><rect fill="#222222" height="30.2969" rx="2.5" ry="2.5" style="stroke:#E7E7E7;stroke-width:0.5;" width="168" x="453.5" y="479.0234"/><text fill="#FFFFFF" font-family="sans-serif" font-size="14" lengthAdjust="spacing" textLength="154" x="460.5" y="499.0186">Authentication Service</text><rect fill="#222222" height="30.2969" rx="2.5" ry="2.5" style="stroke:#E7E7E7;stroke-width:0.5;" width="196" x="631.5" y="50"/><text fill="#FFFFFF" font-family="sans-serif" font-size="14" lengthAdjust="spacing" textLength="182" x="638.5" y="69.9951">Task Management Service</text><rect fill="#222222" height="30.2969" rx="2.5" ry="2.5" style="stroke:#E7E7E7;stroke-width:0.5;" width="196" x="631.5" y="479.0234"/><text fill="#FFFFFF" font-family="sans-serif" font-size="14" lengthAdjust="spacing" textLength="182" x="638.5" y="499.0186">Task Management Service</text><rect fill="#222222" height="30.2969" rx="2.5" ry="2.5" style="stroke:#E7E7E7;stroke-width:0.5;" width="144" x="837.5" y="50"/><text fill="#FFFFFF" font-family="sans-serif" font-size="14" lengthAdjust="spacing" textLength="130" x="844.5" y="69.9951">Notification Service</text><rect fill="#222222" height="30.2969" rx="2.5" ry="2.5" style="stroke:#E7E7E7;stroke-width:0.5;" width="144" x="837.5" y="479.0234"/><text fill="#FFFFFF" font-family="sans-serif" font-size="14" lengthAdjust="spacing" textLength="130" x="844.5" y="499.0186">Notification Service</text><rect fill="#222222" height="30.2969" rx="2.5" ry="2.5" style="stroke:#E7E7E7;stroke-width:0.5;" width="136" x="991.5" y="50"/><text fill="#FFFFFF" font-family="sans-serif" font-size="14" lengthAdjust="spacing" textLength="122" x="998.5" y="69.9951">Reporting Service</text><rect fill="#222222" height="30.2969" rx="2.5" ry="2.5" style="stroke:#E7E7E7;stroke-width:0.5;" width="136" x="991.5" y="479.0234"/><text fill="#FFFFFF" font-family="sans-serif" font-size="14" lengthAdjust="spacing" textLength="122" x="998.5" y="499.0186">Reporting Service</text><rect fill="#222222" height="30.2969" style="stroke:#E7E7E7;stroke-width:0.5;" width="101" x="1141.5" y="46"/><rect fill="#222222" height="30.2969" style="stroke:#E7E7E7;stroke-width:0.5;" width="101" x="1137.5" y="50"/><text fill="#FFFFFF" font-family="sans-serif" font-size="14" lengthAdjust="spacing" textLength="87" x="1144.5" y="69.9951">Kafka Broker</text><rect fill="#222222" height="30.2969" style="stroke:#E7E7E7;stroke-width:0.5;" width="101" x="1141.5" y="479.0234"/><rect fill="#222222" height="30.2969" style="stroke:#E7E7E7;stroke-width:0.5;" width="101" x="1137.5" y="483.0234"/><text fill="#FFFFFF" font-family="sans-serif" font-size="14" lengthAdjust="spacing" textLength="87" x="1144.5" y="503.0186">Kafka Broker</text><text fill="#FFFFFF" font-family="sans-serif" font-size="14" lengthAdjust="spacing" textLength="81" x="1252.5" y="77.9951">PostgreSQL</text><path d="M1278,29 C1278,19 1296,19 1296,19 C1296,19 1314,19 1314,29 L1314,55 C1314,65 1296,65 1296,65 C1296,65 1278,65 1278,55 L1278,29 " fill="#222222" style="stroke:#E7E7E7;stroke-width:1.5;"/><path d="M1278,29 C1278,39 1296,39 1296,39 C1296,39 1314,39 1314,29 " fill="none" style="stroke:#E7E7E7;stroke-width:1.5;"/><text fill="#FFFFFF" font-family="sans-serif" font-size="14" lengthAdjust="spacing" textLength="81" x="1252.5" y="492.0186">PostgreSQL</text><path d="M1278,505.3203 C1278,495.3203 1296,495.3203 1296,495.3203 C1296,495.3203 1314,495.3203 1314,505.3203 L1314,531.3203 C1314,541.3203 1296,541.3203 1296,541.3203 C1296,541.3203 1278,541.3203 1278,531.3203 L1278,505.3203 " fill="#222222" style="stroke:#E7E7E7;stroke-width:1.5;"/><path d="M1278,505.3203 C1278,515.3203 1296,515.3203 1296,515.3203 C1296,515.3203 1314,515.3203 1314,505.3203 " fill="none" style="stroke:#E7E7E7;stroke-width:1.5;"/><text fill="#FFFFFF" font-family="sans-serif" font-size="14" lengthAdjust="spacing" textLength="90" x="1349.5" y="77.9951">Email Service</text><ellipse cx="1397.5" cy="13.5" fill="#222222" rx="8" ry="8" style="stroke:#E7E7E7;stroke-width:0.5;"/><path d="M1397.5,21.5 L1397.5,48.5 M1384.5,29.5 L1410.5,29.5 M1397.5,48.5 L1384.5,63.5 M1397.5,48.5 L1410.5,63.5 " fill="none" style="stroke:#E7E7E7;stroke-width:0.5;"/><text fill="#FFFFFF" font-family="sans-serif" font-size="14" lengthAdjust="spacing" textLength="90" x="1349.5" y="492.0186">Email Service</text><ellipse cx="1397.5" cy="503.8203" fill="#222222" rx="8" ry="8" style="stroke:#E7E7E7;stroke-width:0.5;"/><path d="M1397.5,511.8203 L1397.5,538.8203 M1384.5,519.8203 L1410.5,519.8203 M1397.5,538.8203 L1384.5,553.8203 M1397.5,538.8203 L1410.5,553.8203 " fill="none" style="stroke:#E7E7E7;stroke-width:0.5;"/><polygon fill="#E7E7E7" points="243,108.4297,253,112.4297,243,116.4297,247,112.4297" style="stroke:#E7E7E7;stroke-width:1.0;"/><line style="stroke:#E7E7E7;stroke-width:1.0;" x1="24" x2="249" y1="112.4297" y2="112.4297"/><text fill="#FFFFFF" font-family="sans-serif" font-size="13" lengthAdjust="spacing" textLength="207" x="31" y="107.3638">Interacts with Task Management</text><polygon fill="#E7E7E7" points="382,137.5625,392,141.5625,382,145.5625,386,141.5625" style="stroke:#E7E7E7;stroke-width:1.0;"/><line style="stroke:#E7E7E7;stroke-width:1.0;" x1="24" x2="388" y1="141.5625" y2="141.5625"/><text fill="#FFFFFF" font-family="sans-serif" font-size="13" lengthAdjust="spacing" textLength="150" x="31" y="136.4966">Interacts with Reporting</text><polygon fill="#E7E7E7" points="525.5,166.6953,535.5,170.6953,525.5,174.6953,529.5,170.6953" style="stroke:#E7E7E7;stroke-width:1.0;"/><line style="stroke:#E7E7E7;stroke-width:1.0;" x1="255" x2="531.5" y1="170.6953" y2="170.6953"/><text fill="#FFFFFF" font-family="sans-serif" font-size="13" lengthAdjust="spacing" textLength="116" x="262" y="165.6294">Authenticate User</text><polygon fill="#E7E7E7" points="717.5,195.8281,727.5,199.8281,717.5,203.8281,721.5,199.8281" style="stroke:#E7E7E7;stroke-width:1.0;"/><line style="stroke:#E7E7E7;stroke-width:1.0;" x1="255" x2="723.5" y1="199.8281" y2="199.8281"/><text fill="#FFFFFF" font-family="sans-serif" font-size="13" lengthAdjust="spacing" textLength="91" x="262" y="194.7622">Manage Tasks</text><polygon fill="#E7E7E7" points="1178,224.9609,1188,228.9609,1178,232.9609,1182,228.9609" style="stroke:#E7E7E7;stroke-width:1.0;"/><line style="stroke:#E7E7E7;stroke-width:1.0;" x1="255" x2="1184" y1="228.9609" y2="228.9609"/><text fill="#FFFFFF" font-family="sans-serif" font-size="13" lengthAdjust="spacing" textLength="125" x="262" y="223.895">Publish Task Events</text><polygon fill="#E7E7E7" points="1047.5,254.0938,1057.5,258.0938,1047.5,262.0938,1051.5,258.0938" style="stroke:#E7E7E7;stroke-width:1.0;"/><line style="stroke:#E7E7E7;stroke-width:1.0;" x1="394" x2="1053.5" y1="258.0938" y2="258.0938"/><text fill="#FFFFFF" font-family="sans-serif" font-size="13" lengthAdjust="spacing" textLength="113" x="401" y="253.0278">Generate Reports</text><polygon fill="#E7E7E7" points="1178,283.2266,1188,287.2266,1178,291.2266,1182,287.2266" style="stroke:#E7E7E7;stroke-width:1.0;"/><line style="stroke:#E7E7E7;stroke-width:1.0;" x1="394" x2="1184" y1="287.2266" y2="287.2266"/><text fill="#FFFFFF" font-family="sans-serif" font-size="13" lengthAdjust="spacing" textLength="160" x="401" y="282.1606">Subscribe to Task Events</text><polygon fill="#E7E7E7" points="1178,312.3594,1188,316.3594,1178,320.3594,1182,316.3594" style="stroke:#E7E7E7;stroke-width:1.0;"/><line style="stroke:#E7E7E7;stroke-width:1.0;" x1="729.5" x2="1184" y1="316.3594" y2="316.3594"/><text fill="#FFFFFF" font-family="sans-serif" font-size="13" lengthAdjust="spacing" textLength="125" x="736.5" y="311.2935">Publish Task Events</text><polygon fill="#E7E7E7" points="1178,341.4922,1188,345.4922,1178,349.4922,1182,345.4922" style="stroke:#E7E7E7;stroke-width:1.0;"/><line style="stroke:#E7E7E7;stroke-width:1.0;" x1="909.5" x2="1184" y1="345.4922" y2="345.4922"/><text fill="#FFFFFF" font-family="sans-serif" font-size="13" lengthAdjust="spacing" textLength="160" x="916.5" y="340.4263">Subscribe to Task Events</text><polygon fill="#E7E7E7" points="1284,370.625,1294,374.625,1284,378.625,1288,374.625" style="stroke:#E7E7E7;stroke-width:1.0;"/><line style="stroke:#E7E7E7;stroke-width:1.0;" x1="729.5" x2="1290" y1="374.625" y2="374.625"/><text fill="#FFFFFF" font-family="sans-serif" font-size="13" lengthAdjust="spacing" textLength="103" x="736.5" y="369.5591">Store Task Data</text><polygon fill="#E7E7E7" points="1284,399.7578,1294,403.7578,1284,407.7578,1288,403.7578" style="stroke:#E7E7E7;stroke-width:1.0;"/><line style="stroke:#E7E7E7;stroke-width:1.0;" x1="1059.5" x2="1290" y1="403.7578" y2="403.7578"/><text fill="#FFFFFF" font-family="sans-serif" font-size="13" lengthAdjust="spacing" textLength="106" x="1066.5" y="398.6919">Query Task Data</text><polygon fill="#E7E7E7" points="1284,428.8906,1294,432.8906,1284,436.8906,1288,432.8906" style="stroke:#E7E7E7;stroke-width:1.0;"/><line style="stroke:#E7E7E7;stroke-width:1.0;" x1="537.5" x2="1290" y1="432.8906" y2="432.8906"/><text fill="#FFFFFF" font-family="sans-serif" font-size="13" lengthAdjust="spacing" textLength="86" x="544.5" y="427.8247">Validate User</text><polygon fill="#E7E7E7" points="1385.5,458.0234,1395.5,462.0234,1385.5,466.0234,1389.5,462.0234" style="stroke:#E7E7E7;stroke-width:1.0;"/><line style="stroke:#E7E7E7;stroke-width:1.0;" x1="909.5" x2="1391.5" y1="462.0234" y2="462.0234"/><text fill="#FFFFFF" font-family="sans-serif" font-size="13" lengthAdjust="spacing" textLength="116" x="916.5" y="456.9575">Send Notifications</text><!--SRC=[ZPB1Ri8m44Jl_efLxln03vKQWIf4GM2JtZTc0Il1HhP3rR_lne4qGHJr6C_RcVKugAFpK0JoW04ASKOVZJPdj16oBOOAbcZnG2VYWsAUjTHsMSp7eAIpuqzxk27oddXhuf4jZCPed0L5_c8q9RQLdkSEwUrIZU6LYsR_o7Ub_bfoI4abjAjhqkryW6o1-meXzwuYdu15BdOOiSH0aArTY0TFQlEHj6akC1MOpKvewf5nEX6YWCbhQWnUO6uZUHu8y6NY4UwksQ7o4TclBaIoOgvjZS51hvIUiGUuADOx-nGLUccHix9kojg4wnQp2vi48MG7o7RqdIplmBPTUhY9QLerPT3Ub0JHZItQt6SPA_L_ascYkE3k1Z3bXn3oLzeqvBy7KYhb9dvYRNPzBTVSxftObEmEXhzE-040]--></g></svg>